<svg id="Layer_1" xmlns="http://www.w3.org/2000/svg" xmlns:xlink="http://www.w3.org/1999/xlink" viewBox="0 0 486 296"><style>.st0{fill:#679e63}.st1{fill-rule:evenodd;clip-rule:evenodd;fill:#333}.st3{clip-path:url(#XMLID_3_)}.st4{fill:none}</style><path class="st0" d="M240 282.9c-1.5 0-2.9-.4-4.2-1.1l-13.3-7.9c-2-1.1-1-1.5-.4-1.7 2.7-.9 3.2-1.1 6-2.7.3-.2.7-.1 1 .1l10.2 6.1c.4.2.9.2 1.2 0l39.9-23.1c.4-.2.6-.6.6-1.1v-46.1c0-.5-.2-.9-.6-1.1l-39.9-23c-.4-.2-.9-.2-1.2 0l-39.9 23c-.4.2-.6.7-.6 1.1v46.1c0 .4.2.9.6 1.1l10.9 6.3c5.9 3 9.6-.5 9.6-4v-45.5c0-.6.5-1.2 1.2-1.2h5.1c.6 0 1.2.5 1.2 1.2v45.5c0 7.9-4.3 12.5-11.8 12.5-2.3 0-4.1 0-9.2-2.5l-10.5-6a8.44 8.44 0 0 1-4.2-7.3v-46.1c0-3 1.6-5.8 4.2-7.3l39.9-23.1c2.5-1.4 5.9-1.4 8.4 0l39.9 23.1c2.6 1.5 4.2 4.3 4.2 7.3v46.1c0 3-1.6 5.8-4.2 7.3L244.2 282c-1.3.6-2.8.9-4.2.9z"/><path class="st0" d="M252.3 251.2c-17.5 0-21.1-8-21.1-14.8 0-.6.5-1.2 1.2-1.2h5.2c.6 0 1.1.4 1.1 1 .8 5.3 3.1 7.9 13.7 7.9 8.4 0 12-1.9 12-6.4 0-2.6-1-4.5-14.1-5.8-10.9-1.1-17.7-3.5-17.7-12.2 0-8.1 6.8-12.9 18.2-12.9 12.8 0 19.1 4.4 19.9 14 0 .3-.1.6-.3.9-.2.2-.5.4-.8.4h-5.2c-.5 0-1-.4-1.1-.9-1.2-5.5-4.3-7.3-12.5-7.3-9.2 0-10.3 3.2-10.3 5.6 0 2.9 1.3 3.8 13.7 5.4 12.3 1.6 18.1 3.9 18.1 12.5-.1 8.8-7.3 13.8-20 13.8zM309.9 202.8c0 4.2-3.5 7.7-7.7 7.7a7.7 7.7 0 1 1 7.7-7.7zm-14.2 0c0 3.6 2.9 6.5 6.4 6.5 3.6 0 6.5-3 6.5-6.5 0-3.6-2.9-6.4-6.5-6.4-3.4 0-6.4 2.8-6.4 6.4zm3.6-4.3h3c1 0 3 0 3 2.3 0 1.6-1 1.9-1.6 2.1 1.2.1 1.3.9 1.4 2 .1.7.2 1.9.4 2.3h-1.8c0-.4-.3-2.6-.3-2.7-.1-.5-.3-.7-.9-.7H301v3.5h-1.7v-8.8zm1.6 3.8h1.3c1.1 0 1.3-.8 1.3-1.2 0-1.2-.8-1.2-1.3-1.2h-1.4v2.4z"/><path class="st1" d="M116.2 102.6c0-1.8-1-3.5-2.6-4.4L71.3 73.7c-.7-.4-1.5-.6-2.3-.7h-.4c-.8 0-1.6.3-2.3.7L23.9 98.1c-1.6.9-2.6 2.6-2.6 4.4l.1 65.6c0 .9.5 1.8 1.3 2.2.8.5 1.8.5 2.5 0L50.4 156c1.6-.9 2.6-2.6 2.6-4.4v-30.7c0-1.8 1-3.5 2.6-4.4l10.7-6.2c.8-.5 1.7-.7 2.6-.7.9 0 1.8.2 2.5.7l10.7 6.2c1.6.9 2.6 2.6 2.6 4.4v30.7c0 1.8 1 3.5 2.6 4.4l25.2 14.4c.8.5 1.8.5 2.6 0 .8-.4 1.3-1.3 1.3-2.2l-.2-65.6zM320 12.3c-.8-.4-1.8-.4-2.5 0-.8.5-1.3 1.3-1.3 2.2v65c0 .6-.3 1.2-.9 1.6-.6.3-1.2.3-1.8 0L302.9 75c-1.6-.9-3.5-.9-5.1 0l-42.4 24.5c-1.6.9-2.6 2.6-2.6 4.4v48.9c0 1.8 1 3.5 2.6 4.4l42.4 24.5c1.6.9 3.5.9 5.1 0l42.4-24.5c1.6-.9 2.6-2.6 2.6-4.4V30.9c0-1.9-1-3.6-2.6-4.5L320 12.3zm-3.9 124.4c0 .5-.2.9-.6 1.1l-14.5 8.4c-.4.2-.9.2-1.3 0l-14.5-8.4c-.4-.2-.6-.7-.6-1.1v-16.8c0-.5.2-.9.6-1.1l14.5-8.4c.4-.2.9-.2 1.3 0l14.5 8.4c.4.2.6.7.6 1.1v16.8zM461.1 119.5a5 5 0 0 0 2.5-4.4v-11.9c0-1.8-1-3.5-2.5-4.4L419 74.4c-1.6-.9-3.5-.9-5.1 0l-42.4 24.5c-1.6.9-2.6 2.6-2.6 4.4v48.9c0 1.8 1 3.5 2.6 4.4l42.1 24c1.6.9 3.5.9 5 0l25.5-14.2c.8-.4 1.3-1.3 1.3-2.2 0-.9-.5-1.8-1.3-2.2l-42.6-24.5a2.6 2.6 0 0 1-1.3-2.2V120c0-.9.5-1.8 1.3-2.2l13.3-7.6c.8-.5 1.8-.5 2.6 0l13.3 7.6c.8.5 1.3 1.3 1.3 2.2v12c0 .9.5 1.8 1.3 2.2.8.5 1.8.5 2.6 0l25.2-14.7z"/><path d="M415.8 117.2c.3-.2.7-.2 1 0l8.1 4.7c.3.2.5.5.5.9v9.4c0 .4-.2.7-.5.9l-8.1 4.7c-.3.2-.7.2-1 0l-8.1-4.7c-.3-.2-.5-.5-.5-.9v-9.4c0-.4.2-.7.5-.9l8.1-4.7z" fill-rule="evenodd" clip-rule="evenodd" fill="#679e63"/><g><defs><path id="XMLID_143_" d="M187.1 74.6c-1.6-.9-3.5-.9-5.1 0l-42.1 24.3a5 5 0 0 0-2.5 4.4V152c0 1.8 1 3.5 2.5 4.4l42.1 24.3c1.6.9 3.5.9 5.1 0l42.1-24.3a5 5 0 0 0 2.5-4.4v-48.7c0-1.8-1-3.5-2.5-4.4l-42.1-24.3z"/></defs><linearGradient id="XMLID_2_" gradientUnits="userSpaceOnUse" x1="201.7" y1="92.71" x2="163.64" y2="170.37"><stop offset="0" stop-color="#3f873f"/><stop offset=".33" stop-color="#3f8b3d"/><stop offset=".64" stop-color="#3e9638"/><stop offset=".93" stop-color="#3da92e"/><stop offset="1" stop-color="#3dae2b"/></linearGradient><use xlink:href="#XMLID_143_" overflow="visible" fill-rule="evenodd" clip-rule="evenodd" fill="url(#XMLID_2_)"/><clipPath id="XMLID_3_"><use xlink:href="#XMLID_143_" overflow="visible"/></clipPath><g class="st3"><path class="st4" d="M181.9 74.6l-42.2 24.3c-1.6.9-2.7 2.6-2.7 4.4V152c0 1.2.5 2.3 1.3 3.2L185.7 74c-1.2-.2-2.6-.1-3.8.6zM186 181.2c.4-.1.8-.3 1.2-.5l42.2-24.3c1.6-.9 2.6-2.6 2.6-4.4v-48.7c0-1.3-.6-2.6-1.5-3.5L186 181.2z"/><linearGradient id="SVGID_1_" gradientUnits="userSpaceOnUse" x1="178.16" y1="133.35" x2="284.96" y2="54.44"><stop offset=".14" stop-color="#3f873f"/><stop offset=".4" stop-color="#52a044"/><stop offset=".71" stop-color="#64b749"/><stop offset=".91" stop-color="#6abf4b"/></linearGradient><path d="M229.3 98.9L187 74.6c-.4-.2-.9-.4-1.3-.5l-47.4 81.2c.4.5.9.9 1.4 1.2l42.3 24.3c1.2.7 2.6.9 3.9.5l44.5-81.4c-.3-.4-.7-.7-1.1-1z" fill="url(#SVGID_1_)"/></g><g class="st3"><path class="st4" d="M232 152v-48.7c0-1.8-1.1-3.5-2.7-4.4L187 74.6c-.5-.3-1-.5-1.6-.6l46.3 79.1c.2-.3.3-.7.3-1.1zM139.7 98.9c-1.6.9-2.7 2.6-2.7 4.4V152c0 1.8 1.2 3.5 2.7 4.4l42.3 24.3c1 .6 2.1.8 3.3.6L140 98.8l-.3.1z"/><linearGradient id="SVGID_2_" gradientUnits="userSpaceOnUse" x1="135.86" y1="65.83" x2="233.28" y2="65.83"><stop offset=".09" stop-color="#6abf4b"/><stop offset=".29" stop-color="#64b749"/><stop offset=".6" stop-color="#52a044"/><stop offset=".86" stop-color="#3f873f"/></linearGradient><path fill="url(#SVGID_2_)" d="M180.6 65.7l-.6.3h.8z"/><linearGradient id="SVGID_3_" gradientUnits="userSpaceOnUse" x1="135.86" y1="127.65" x2="233.28" y2="127.65"><stop offset=".09" stop-color="#6abf4b"/><stop offset=".29" stop-color="#64b749"/><stop offset=".6" stop-color="#52a044"/><stop offset=".86" stop-color="#3f873f"/></linearGradient><path d="M229.4 156.4c1.2-.7 2.1-1.9 2.5-3.2L185.5 74c-1.2-.2-2.5-.1-3.6.6l-42 24.2 45.3 82.6c.6-.1 1.3-.3 1.9-.6l42.3-24.4z" fill="url(#SVGID_3_)"/><linearGradient id="SVGID_4_" gradientUnits="userSpaceOnUse" x1="135.86" y1="155.46" x2="233.28" y2="155.46"><stop offset=".09" stop-color="#6abf4b"/><stop offset=".29" stop-color="#64b749"/><stop offset=".6" stop-color="#52a044"/><stop offset=".86" stop-color="#3f873f"/></linearGradient><path fill="url(#SVGID_4_)" d="M233.3 155.6l-.3-.5v.7z"/><linearGradient id="SVGID_5_" gradientUnits="userSpaceOnUse" x1="135.86" y1="168.03" x2="233.28" y2="168.03"><stop offset=".09" stop-color="#6abf4b"/><stop offset=".29" stop-color="#64b749"/><stop offset=".6" stop-color="#52a044"/><stop offset=".86" stop-color="#3f873f"/></linearGradient><path d="M229.4 156.4l-42.2 24.3c-.6.3-1.2.5-1.9.6l.8 1.5 46.8-27.1v-.6l-1.2-2c-.2 1.4-1.1 2.6-2.3 3.3z" fill="url(#SVGID_5_)"/><linearGradient id="SVGID_6_" gradientUnits="userSpaceOnUse" x1="247.47" y1="90.41" x2="187.39" y2="212.98"><stop offset="0" stop-color="#3f873f"/><stop offset=".33" stop-color="#3f8b3d"/><stop offset=".64" stop-color="#3e9638"/><stop offset=".93" stop-color="#3da92e"/><stop offset="1" stop-color="#3dae2b"/></linearGradient><path d="M229.4 156.4l-42.2 24.3c-.6.3-1.2.5-1.9.6l.8 1.5 46.8-27.1v-.6l-1.2-2c-.2 1.4-1.1 2.6-2.3 3.3z" fill="url(#SVGID_6_)"/></g></g></svg>